<?xml version="1.0" encoding="utf-8"?>
<!-- Generator: Adobe Illustrator 24.3.0, SVG Export Plug-In . SVG Version: 6.00 Build 0)  -->
<svg version="1.1" id="Laag_1" xmlns="http://www.w3.org/2000/svg" xmlns:xlink="http://www.w3.org/1999/xlink" x="0px" y="0px"
	 viewBox="0 0 64 80" style="enable-background:new 0 0 64 80;" xml:space="preserve">
<style type="text/css">
	.st0{fill:#737272;}
</style>
<g>
	<path class="st0" d="M57.5,42.6L32.7,17.1c-0.4-0.4-1.1-0.4-1.4,0L6.5,42.6c-0.4,0.4-0.4,1,0,1.4l2.9,2.9c0.2,0.2,0.4,0.3,0.7,0.3
		c0,0,0,0,0,0c0.3,0,0.5-0.1,0.7-0.3L32,25l21.2,21.8c0.2,0.2,0.4,0.3,0.7,0.3c0,0,0,0,0,0c0.3,0,0.5-0.1,0.7-0.3l2.9-2.9
		C57.9,43.6,57.9,43,57.5,42.6z"/>
</g>
</svg>
