<?xml version="1.0" encoding="utf-8"?>
<!-- Generator: Adobe Illustrator 24.3.0, SVG Export Plug-In . SVG Version: 6.00 Build 0)  -->
<svg version="1.1" id="Layer_1" xmlns="http://www.w3.org/2000/svg" xmlns:xlink="http://www.w3.org/1999/xlink" x="0px" y="0px"
	 viewBox="0 0 100 125" style="enable-background:new 0 0 100 125;" xml:space="preserve">
<style type="text/css">
	.st0{fill:#727272;}
</style>
<path class="st0" d="M93.2,23.9c-3.4-8.3-11-13.8-19.9-14.2c-0.5,0-0.9,0-1.4,0c-8.7,0-16.8,4.2-21.9,11.1
	C44.9,13.9,36.8,9.7,28.1,9.7c-0.5,0-0.9,0-1.4,0c-8.9,0.4-16.5,5.9-19.9,14.2C3.3,32.5,5,42,11.2,48.8l37.4,40.8
	c0.4,0.4,0.9,0.7,1.5,0.7s1.1-0.2,1.5-0.7L89,48.8C95,42,96.7,32.5,93.2,23.9z M85.9,46.1L50,85.4L14.1,46.1
	C9,40.5,7.6,32.6,10.5,25.4c2.9-7,9-11.4,16.4-11.7c0.4,0,0.8,0,1.2,0c8.3,0,16,4.5,20.2,11.7c0.4,0.6,1,1,1.7,1s1.4-0.4,1.7-1
	c4.1-7.2,11.8-11.7,20.2-11.7c0.4,0,0.8,0,1.2,0c7.4,0.4,13.5,4.8,16.4,11.7C92.4,32.6,91,40.5,85.9,46.1z"/>
</svg>
