<?xml version="1.0" encoding="utf-8"?>
<!-- Generator: Adobe Illustrator 24.3.0, SVG Export Plug-In . SVG Version: 6.00 Build 0)  -->
<svg version="1.1"
	 id="Laag_1" xmlns:cc="http://creativecommons.org/ns#" xmlns:dc="http://purl.org/dc/elements/1.1/" xmlns:inkscape="http://www.inkscape.org/namespaces/inkscape" xmlns:rdf="http://www.w3.org/1999/02/22-rdf-syntax-ns#" xmlns:sodipodi="http://sodipodi.sourceforge.net/DTD/sodipodi-0.dtd" xmlns:svg="http://www.w3.org/2000/svg"
	 xmlns="http://www.w3.org/2000/svg" xmlns:xlink="http://www.w3.org/1999/xlink" x="0px" y="0px" viewBox="0 0 100 125"
	 style="enable-background:new 0 0 100 125;" xml:space="preserve">
<g transform="translate(0,-952.36218)">
	<path d="M32.3,969.4c-5.2,0-10.4,2-14.3,6c-7.9,8-7.9,20.9,0,28.8l29.9,30.3c1.2,1.2,3.1,1.2,4.2,0c0,0,0,0,0,0
		c10-10.1,20-20.1,29.9-30.2c7.9-8,7.9-20.9,0-28.9c-7.9-8-20.8-8-28.7,0l-3.4,3.4l-3.4-3.4C42.6,971.4,37.5,969.4,32.3,969.4
		L32.3,969.4z M32.3,975.3c3.6,0,7.2,1.4,10.1,4.2l5.5,5.6c1.2,1.2,3.1,1.2,4.2,0c0,0,0,0,0,0l5.5-5.6c5.6-5.7,14.5-5.7,20.2,0
		c5.6,5.7,5.6,14.7,0,20.4c-9.3,9.4-18.5,18.7-27.8,28.1L22.2,1000c-5.6-5.7-5.6-14.7,0-20.4C25,976.7,28.7,975.3,32.3,975.3
		L32.3,975.3z"/>
</g>
</svg>
