<?xml version="1.0" encoding="utf-8"?>
<!-- Generator: Adobe Illustrator 24.3.0, SVG Export Plug-In . SVG Version: 6.00 Build 0)  -->
<svg version="1.1" id="Layer_1" xmlns="http://www.w3.org/2000/svg" xmlns:xlink="http://www.w3.org/1999/xlink" x="0px" y="0px"
	 viewBox="0 0 100 125" style="enable-background:new 0 0 100 125;" xml:space="preserve">
<style type="text/css">
	.st0{fill:#606060;}
</style>
<path class="st0" d="M93.2,29.9c-3.4-8.3-11-13.8-19.9-14.2c-0.5,0-0.9,0-1.4,0c-8.7,0-16.8,4.2-21.9,11.1
	c-5.1-6.9-13.2-11.1-21.9-11.1c-0.5,0-0.9,0-1.4,0c-8.9,0.4-16.5,5.9-19.9,14.2C3.3,38.5,5,48,11.2,54.8l37.4,40.8
	c0.4,0.4,0.9,0.7,1.5,0.7s1.1-0.2,1.5-0.7L89,54.8C95,48,96.7,38.5,93.2,29.9z"/>
</svg>
