<?xml version="1.0" encoding="utf-8"?>
<!-- Generator: Adobe Illustrator 24.3.0, SVG Export Plug-In . SVG Version: 6.00 Build 0)  -->
<svg version="1.1"
	 id="Laag_1" xmlns:cc="http://creativecommons.org/ns#" xmlns:dc="http://purl.org/dc/elements/1.1/" xmlns:inkscape="http://www.inkscape.org/namespaces/inkscape" xmlns:rdf="http://www.w3.org/1999/02/22-rdf-syntax-ns#" xmlns:sodipodi="http://sodipodi.sourceforge.net/DTD/sodipodi-0.dtd" xmlns:svg="http://www.w3.org/2000/svg"
	 xmlns="http://www.w3.org/2000/svg" xmlns:xlink="http://www.w3.org/1999/xlink" x="0px" y="0px" viewBox="0 0 100 125"
	 style="enable-background:new 0 0 100 125;" xml:space="preserve">
<g transform="translate(0,-952.36218)">
	<path d="M50,976.4c-1.7,0-3,1.3-3,3v20H27c-1.7,0-3,1.3-3,3c0,1.7,1.3,3,3,3h20v20c0,1.7,1.3,3,3,3c1.7,0,3-1.3,3-3v-20h20
		c1.7,0,3-1.3,3-3c0-1.7-1.3-3-3-3H53v-20C53,977.7,51.7,976.4,50,976.4L50,976.4z"/>
</g>
</svg>
