<svg xmlns="http://www.w3.org/2000/svg" xmlns:xlink="http://www.w3.org/1999/xlink" version="1.1" x="0px" y="0px" viewBox="0 0 1024 1280" enable-background="new 0 0 1024 1024" xml:space="preserve"><g><g><g><path d="M946.7,888.5c-14-86.4-55.1-167.5-115.2-230.9C772.8,595.6,695.4,551,612.2,531.9     c-80.8-18.6-167.1-14.6-245.4,13.1C297,569.6,233.3,611.5,184,666.8c-49.5,55.4-85.2,123-101.6,195.5c-2,8.7-3.6,17.4-5,26.1     c-1.1,6.8-1.1,13.1,2.5,19.3c3,5.2,9,10.1,14.9,11.5c12,2.7,28.5-3.7,30.8-17.5c2.8-17.4,6.7-34.7,11.7-51.6     c2.5-8.4,5.2-16.7,8.2-24.9c1.5-4.1,3-8.1,4.7-12.2c0.8-1.9,1.6-3.8,2.3-5.7c-3.1,7.6-0.1,0.3,0.7-1.6     c7.1-16,15.1-31.5,24.1-46.4c4.4-7.3,9.1-14.5,13.9-21.6c2.3-3.3,4.7-6.6,7-9.9c1.2-1.6,2.4-3.3,3.6-4.9c0.5-0.6,3.3-4.2,0.5-0.7     c-2.8,3.6,0.4-0.5,0.9-1.2c10.6-13.4,22-26.1,34.1-38.1c6.1-6,12.3-11.8,18.7-17.4c3.2-2.8,6.5-5.6,9.8-8.3     c1.4-1.1,2.8-2.3,4.2-3.4c0.9-0.7,1.8-1.4,2.6-2.1c4.3-3.4-2.8,2.1-0.8,0.6c13.6-10.4,27.8-20,42.6-28.6     c15.1-8.9,30.9-15.9,46.7-23.6c-0.2,0.1-5.9,2.5-2.2,0.9c0.8-0.3,1.7-0.7,2.5-1c2.1-0.9,4.2-1.7,6.4-2.5     c4.3-1.7,8.6-3.2,12.9-4.8c8.2-2.9,16.6-5.5,25-7.9c17-4.8,34.4-8.5,51.9-11.1c0.9-0.1,1.9-0.3,2.8-0.4c4.1-0.6-2.2,0.3-2.4,0.3     c2.3-0.2,4.7-0.6,7-0.9c4.7-0.5,9.4-1,14.2-1.3c10.3-0.8,20.6-1.2,31-1.3c11.1,0,22.2,0.3,33.3,1.2c4.9,0.4,9.9,0.8,14.8,1.4     c2.4,0.3,4.9,0.6,7.3,0.9c3.7,0.4-6.5-1-1-0.1c1.6,0.2,3.2,0.5,4.8,0.7c20.2,3.1,40.1,7.7,59.7,13.8c9.6,3,19.1,6.3,28.5,10     c2.2,0.9,4.4,1.8,6.6,2.7c3.3,1.3-5.8-2.5-0.9-0.4c1,0.4,1.9,0.8,2.9,1.3c4.8,2.1,9.6,4.3,14.3,6.6c17.9,8.7,35.1,18.6,51.6,29.8     c3.9,2.6,7.7,5.3,11.5,8.1c2.1,1.5,4.2,3.1,6.3,4.6c0.8,0.6,1.6,1.3,2.5,1.9c-5.8-4.3-1.2-0.9-0.1-0.1     c7.7,6.1,15.3,12.5,22.6,19.2c14.8,13.5,28.6,28.1,41.3,43.6c1.7,2.1,3.3,4.1,5,6.2c0.9,1.1,2.8,3.7-1-1.3     c0.6,0.9,1.3,1.7,1.9,2.5c3.2,4.2,6.3,8.6,9.4,12.9c5.8,8.3,11.3,16.8,16.5,25.6c5.2,8.7,10.1,17.7,14.6,26.8     c2.2,4.3,4.2,8.7,6.3,13.1c1.1,2.5,2.2,4.9,3.3,7.4c1.9,4.3-0.7-1.4-0.6-1.5c-0.2,0.1,1.6,3.9,1.9,4.5     c7.8,19.2,14.1,38.9,18.9,59c2.4,10.2,4.5,20.5,6.1,30.9c0.9,5.8,6.6,12.1,11.5,14.9c5.4,3.1,13.3,4.5,19.3,2.5     C943.3,914.7,949,902.3,946.7,888.5L946.7,888.5z"/></g></g><g><g><path d="M696,337.9c0,5.6-0.2,11.2-0.7,16.8c-0.2,2.3-0.4,4.6-0.7,6.9c-0.2,1.8-1.2,6.8,0.2-1.2     c-0.3,1.8-0.5,3.6-0.8,5.4c-1.7,10.2-4.2,20.3-7.4,30.2c-1.5,4.7-3.3,9.2-5,13.8c-1.8,4.7,2.5-5.7,0.5-1.1     c-0.5,1.2-1.1,2.4-1.6,3.6c-1.1,2.4-2.3,4.8-3.5,7.2c-4.8,9.4-10.2,18.4-16.4,27c-1.3,1.8-2.7,3.5-3.9,5.3c4.9-7-0.5,0.5-1.8,2.1     c-3.4,4-6.9,7.9-10.5,11.7c-3.3,3.4-6.8,6.8-10.4,10c-1.9,1.8-3.9,3.5-5.9,5.1c-1.6,1.4-9.1,6.7-2.1,1.8     c-8.7,6-17.1,12.1-26.5,17.2c-4.3,2.3-8.6,4.5-13,6.5c-1.2,0.6-2.4,1.1-3.6,1.6c-3.7,1.6,2.1-0.9,2.3-1c-2.9,1-5.8,2.3-8.7,3.4     c-9.7,3.5-19.7,6.3-29.8,8.3c-2.7,0.5-5.4,1-8.1,1.5c-1.4,0.2-2.7,0.4-4.1,0.6c7.4-1.3,3.7-0.5,1.9-0.3     c-5.8,0.7-11.5,1.1-17.3,1.3c-10.7,0.4-21.4-0.2-32.1-1.4c-5.2-0.6,6.3,1,1.2,0.2c-1.1-0.2-2.3-0.3-3.4-0.5     c-2.5-0.4-4.9-0.8-7.4-1.3c-5.3-1.1-10.6-2.3-15.8-3.8c-4.7-1.3-9.4-2.8-14-4.5c-2.5-0.9-5-1.9-7.5-2.9c-4.7-1.8,5.7,2.5,1.1,0.5     c-1.6-0.7-3.2-1.4-4.8-2.2c-9.2-4.3-18-9.2-26.5-14.8c-4-2.7-7.8-5.6-11.8-8.4c7,4.9-0.5-0.5-2.1-1.8c-2-1.7-4-3.4-5.9-5.1     c-7.6-6.9-14.8-14.3-21.3-22.2c-1.3-1.6-6.2-8.6-1.4-1.6c-1.5-2.2-3.1-4.2-4.7-6.4c-3-4.3-5.9-8.7-8.6-13.2     c-2.5-4.2-4.8-8.4-7-12.7c-1.2-2.4-2.3-4.8-3.5-7.2c-0.4-0.8-0.7-1.6-1.1-2.4c-2.7-6.2,1.5,3.9-0.1-0.1c-3.8-9.6-7-19.3-9.4-29.3     c-1.3-5.3-2.3-10.6-3.2-16c-0.1-0.9-0.3-1.8-0.4-2.7c-0.8-5.1,0.7,6.4,0.2,1.2c-0.3-3.2-0.7-6.4-0.9-9.7     c-0.8-10.7-0.7-21.5,0.1-32.2c0.2-2.8,0.5-5.5,0.8-8.3c0.5-5-0.8,5.3-0.3,1.9c0.2-1.1,0.3-2.3,0.5-3.4c0.9-5.4,1.9-10.7,3.2-16     c2.5-10.5,6.3-20.4,9.9-30.6c-2.9,8-0.1,0.4,0.7-1.3c1.1-2.4,2.3-4.8,3.5-7.2c2.4-4.7,4.9-9.3,7.7-13.8c2.5-4.1,5.1-8.2,7.9-12.1     c1.5-2.1,3.2-4.2,4.7-6.4c-4.8,6.9,0.4-0.4,1.8-2.1c6.7-8.1,14-15.6,21.9-22.6c1.6-1.5,3.3-2.9,5-4.3c1.6-1.3,9.2-6.7,2.1-1.8     c4.3-3,8.5-6.2,12.9-9.1c8.5-5.5,17.4-10.4,26.6-14.6c1.2-0.6,2.4-1.1,3.6-1.6c4.6-2.1-5.8,2.3-1.1,0.5c2.3-0.9,4.5-1.8,6.8-2.6     c5.3-1.9,10.6-3.6,16-5.1c4.8-1.3,9.6-2.5,14.5-3.4c2.2-0.4,4.5-0.9,6.7-1.2c1.4-0.2,2.7-0.4,4.1-0.6c4.5-0.7-6.8,0.8,0.2,0     c10.7-1.2,21.4-1.6,32.1-1.2c5.1,0.2,10.2,0.6,15.2,1.2c1.8,0.2,6.8,1.2-1.2-0.2c1.3,0.2,2.7,0.4,4.1,0.6     c3.1,0.5,6.3,1.1,9.4,1.7c10.1,2.1,20.1,4.9,29.8,8.5c2.3,0.8,4.5,1.8,6.8,2.7c3.1,1.2-6.1-2.7-1.7-0.7c1.2,0.5,2.4,1.1,3.6,1.6     c4.8,2.2,9.5,4.6,14.2,7.2c4.2,2.3,8.4,4.8,12.4,7.5c2.2,1.4,4.4,2.9,6.5,4.4c1.1,0.8,2.1,1.5,3.2,2.3c0.7,0.5,5.4,4.1,1.7,1.2     c-3.6-2.8,0,0,0.6,0.5c1,0.8,2,1.7,3,2.5c2,1.7,4,3.4,5.9,5.1c3.9,3.5,7.7,7.2,11.3,10.9c3.3,3.5,6.5,7.1,9.6,10.7     c1.4,1.6,6.7,9.2,1.8,2.1c1.5,2.2,3.1,4.2,4.7,6.4c5.9,8.4,11.3,17.3,15.9,26.5c1.1,2.2,2.1,4.4,3.2,6.6c0.6,1.2,1.1,2.4,1.6,3.6     c2.1,4.6-2.3-5.8-0.5-1.1c2,5,3.8,10,5.5,15.1c3.2,9.9,5.6,20,7.2,30.3c0.2,1.4,0.4,2.7,0.6,4.1c-1.4-7.9-0.4-3-0.2-1.2     c0.3,2.3,0.5,4.6,0.7,6.9C695.8,326.7,696,332.3,696,337.9c0,13.1,11.5,25.6,25,25c13.5-0.6,25-11,25-25     c-0.2-47.4-14.6-95.2-42.2-133.9c-28.3-39.7-67-69.4-112.8-86.3c-90.1-33.3-197.1-4.3-258.1,69.8     c-31.5,38.3-50.3,84.2-54.2,133.6c-3.8,47.6,8.1,96.7,32.9,137.5c23.9,39.4,59.8,72.4,101.9,91.4c46.1,20.8,96.7,26.8,146.5,16.9     c92.5-18.5,168.5-97.1,182.8-190.5c2-12.8,3.3-25.6,3.3-38.5c0-13.1-11.5-25.6-25-25C707.4,313.5,696,323.9,696,337.9z"/></g></g></g><text x="0" y="1039" fill="#000000" font-size="5px" font-weight="bold" font-family="'Helvetica Neue', Helvetica, Arial-Unicode, Arial, Sans-serif">Created by Neha Tyagi</text><text x="0" y="1044" fill="#000000" font-size="5px" font-weight="bold" font-family="'Helvetica Neue', Helvetica, Arial-Unicode, Arial, Sans-serif">from the Noun Project</text></svg>